<svg xmlns="http://www.w3.org/2000/svg" width="1280" height="1356" viewBox="0 0 1280 1356">
<style>
text{font-family:-apple-system,BlinkMacSystemFont,'Segoe UI',sans-serif;fill:#1f2933}
.small{font-size:12px;fill:#52606d}.axis{stroke:#9aa5b1;stroke-width:1}
.grid{stroke:#d9e2ec;stroke-width:1}.threshold{stroke:#d64545;stroke-width:2;stroke-dasharray:7 6}
.label{font-size:12px}.title{font-size:22px;font-weight:700}.bar-ok{fill:#2f80ed}
.bar-fast{fill:#2f9e44}.bar-risk{fill:#d64545}.value{font-size:12px;font-variant-numeric:tabular-nums}
</style>
<rect width="100%" height="100%" fill="#ffffff"/>
<text x="300.0" y="30.0" class="title">MDLA7 / MDLA6 Pattern Ratio</text>
<text x="300.0" y="52.0" class="small">X = MDLA7 / MDLA6 CX （Cycle Ratio）; dashed line marks X = 2</text>
<line x1="300.0" y1="64" x2="300.0" y2="1304" class="grid"/>
<text x="300.0" y="1328.0" class="small" text-anchor="middle">0</text>
<line x1="470.0" y1="64" x2="470.0" y2="1304" class="grid"/>
<text x="470.0" y="1328.0" class="small" text-anchor="middle">0.5</text>
<line x1="640.0" y1="64" x2="640.0" y2="1304" class="grid"/>
<text x="640.0" y="1328.0" class="small" text-anchor="middle">1</text>
<line x1="809.9" y1="64" x2="809.9" y2="1304" class="grid"/>
<text x="809.9" y="1328.0" class="small" text-anchor="middle">1.5</text>
<line x1="979.9" y1="64" x2="979.9" y2="1304" class="grid"/>
<text x="979.9" y="1328.0" class="small" text-anchor="middle">2</text>
<line x1="1149.9" y1="64" x2="1149.9" y2="1304" class="grid"/>
<text x="1149.9" y="1328.0" class="small" text-anchor="middle">2.5</text>
<line x1="979.9" y1="56" x2="979.9" y2="1304" class="threshold"/>
<text x="985.9" y="50.0" class="small" fill="#d64545">X=2</text>
<line x1="300" y1="1304" x2="1162" y2="1304" class="axis"/>
<text x="18.0" y="90.0" class="label">mobilenet_v3_float</text>
<rect x="300.0" y="78.0" width="769.6" height="15" rx="2" class="bar-risk"/>
<text x="1076.6" y="90.0" class="value">2.26  (1.381/0.61)</text>
<text x="18.0" y="114.0" class="label">srgan_quant</text>
<rect x="300.0" y="102.0" width="761.9" height="15" rx="2" class="bar-risk"/>
<text x="1068.9" y="114.0" class="value">2.24  (7.620/3.4)</text>
<text x="18.0" y="138.0" class="label">xlsr_quant</text>
<rect x="300.0" y="126.0" width="742.8" height="15" rx="2" class="bar-risk"/>
<text x="1049.8" y="138.0" class="value">2.18  (0.721/0.33)</text>
<text x="18.0" y="162.0" class="label">srgan_float</text>
<rect x="300.0" y="150.0" width="737.8" height="15" rx="2" class="bar-risk"/>
<text x="1044.8" y="162.0" class="value">2.17  (20.205/9.31)</text>
<text x="18.0" y="186.0" class="label">mobilenet_v3_quant</text>
<rect x="300.0" y="174.0" width="666.3" height="15" rx="2" class="bar-ok"/>
<text x="973.3" y="186.0" class="value">1.96  (0.490/0.25)</text>
<text x="18.0" y="210.0" class="label">dped_int16</text>
<rect x="300.0" y="198.0" width="662.3" height="15" rx="2" class="bar-ok"/>
<text x="969.3" y="210.0" class="value">1.95  (10.559/5.42)</text>
<text x="18.0" y="234.0" class="label">yolo_v8_quant</text>
<rect x="300.0" y="222.0" width="650.5" height="15" rx="2" class="bar-ok"/>
<text x="957.5" y="234.0" class="value">1.91  (1.148/0.6)</text>
<text x="18.0" y="258.0" class="label">esrgan_float</text>
<rect x="300.0" y="246.0" width="640.6" height="15" rx="2" class="bar-ok"/>
<text x="947.6" y="258.0" class="value">1.88  (4.183/2.22)</text>
<text x="18.0" y="282.0" class="label">vsr_quant</text>
<rect x="300.0" y="270.0" width="639.3" height="15" rx="2" class="bar-ok"/>
<text x="946.3" y="282.0" class="value">1.88  (1.448/0.77)</text>
<text x="18.0" y="306.0" class="label">mobilevit_v2_float</text>
<rect x="300.0" y="294.0" width="636.8" height="15" rx="2" class="bar-ok"/>
<text x="943.8" y="306.0" class="value">1.87  (4.046/2.16)</text>
<text x="18.0" y="330.0" class="label">efficientnet_b4_quant</text>
<rect x="300.0" y="318.0" width="632.8" height="15" rx="2" class="bar-ok"/>
<text x="939.8" y="330.0" class="value">1.86  (1.787/0.96)</text>
<text x="18.0" y="354.0" class="label">efficientnet_b4_float</text>
<rect x="300.0" y="342.0" width="612.2" height="15" rx="2" class="bar-ok"/>
<text x="919.2" y="354.0" class="value">1.80  (3.890/2.16)</text>
<text x="18.0" y="378.0" class="label">mobilebert_quant.cut</text>
<rect x="300.0" y="366.0" width="570.0" height="15" rx="2" class="bar-ok"/>
<text x="877.0" y="378.0" class="value">1.68  (2.012/1.2)</text>
<text x="18.0" y="402.0" class="label">sd_diffusion_quant</text>
<rect x="300.0" y="390.0" width="538.7" height="15" rx="2" class="bar-ok"/>
<text x="845.7" y="402.0" class="value">1.58  (2.551/1.61)</text>
<text x="18.0" y="426.0" class="label">unet_float</text>
<rect x="300.0" y="414.0" width="538.3" height="15" rx="2" class="bar-ok"/>
<text x="845.3" y="426.0" class="value">1.58  (7.616/4.81)</text>
<text x="18.0" y="450.0" class="label">vsr_float</text>
<rect x="300.0" y="438.0" width="530.2" height="15" rx="2" class="bar-ok"/>
<text x="837.2" y="450.0" class="value">1.56  (3.696/2.37)</text>
<text x="18.0" y="474.0" class="label">inception_v3_float</text>
<rect x="300.0" y="462.0" width="517.8" height="15" rx="2" class="bar-ok"/>
<text x="824.8" y="474.0" class="value">1.52  (2.376/1.56)</text>
<text x="18.0" y="498.0" class="label">esrgan_quant</text>
<rect x="300.0" y="486.0" width="515.2" height="15" rx="2" class="bar-ok"/>
<text x="822.2" y="498.0" class="value">1.52  (1.470/0.97)</text>
<text x="18.0" y="522.0" class="label">yolo_v8_float</text>
<rect x="300.0" y="510.0" width="498.4" height="15" rx="2" class="bar-ok"/>
<text x="805.4" y="522.0" class="value">1.47  (3.167/2.16)</text>
<text x="18.0" y="546.0" class="label">deeplab_v3_plus_quant</text>
<rect x="300.0" y="534.0" width="465.9" height="15" rx="2" class="bar-ok"/>
<text x="772.9" y="546.0" class="value">1.37  (2.549/1.86)</text>
<text x="18.0" y="570.0" class="label">xlsr_float</text>
<rect x="300.0" y="558.0" width="459.8" height="15" rx="2" class="bar-ok"/>
<text x="766.8" y="570.0" class="value">1.35  (1.542/1.14)</text>
<text x="18.0" y="594.0" class="label">unet_int16</text>
<rect x="300.0" y="582.0" width="456.4" height="15" rx="2" class="bar-ok"/>
<text x="763.4" y="594.0" class="value">1.34  (4.551/3.39)</text>
<text x="18.0" y="618.0" class="label">sam_float.cut</text>
<rect x="300.0" y="606.0" width="435.0" height="15" rx="2" class="bar-ok"/>
<text x="742.0" y="618.0" class="value">1.28  (4.466/3.49)</text>
<text x="18.0" y="642.0" class="label">inception_v3_quant</text>
<rect x="300.0" y="630.0" width="434.8" height="15" rx="2" class="bar-ok"/>
<text x="741.8" y="642.0" class="value">1.28  (0.793/0.62)</text>
<text x="18.0" y="666.0" class="label">imdn_float</text>
<rect x="300.0" y="654.0" width="431.0" height="15" rx="2" class="bar-ok"/>
<text x="738.0" y="666.0" class="value">1.27  (7.074/5.58)</text>
<text x="18.0" y="690.0" class="label">unet_quant</text>
<rect x="300.0" y="678.0" width="427.0" height="15" rx="2" class="bar-ok"/>
<text x="734.0" y="690.0" class="value">1.26  (2.311/1.84)</text>
<text x="18.0" y="714.0" class="label">midas_v3_float</text>
<rect x="300.0" y="702.0" width="421.6" height="15" rx="2" class="bar-ok"/>
<text x="728.6" y="714.0" class="value">1.24  (1.910/1.54)</text>
<text x="18.0" y="738.0" class="label">midas_v3_quant</text>
<rect x="300.0" y="726.0" width="420.8" height="15" rx="2" class="bar-ok"/>
<text x="727.8" y="738.0" class="value">1.24  (0.817/0.66)</text>
<text x="18.0" y="762.0" class="label">deeplab_v3_plus_float</text>
<rect x="300.0" y="750.0" width="410.5" height="15" rx="2" class="bar-ok"/>
<text x="717.5" y="762.0" class="value">1.21  (5.881/4.87)</text>
<text x="18.0" y="786.0" class="label">imdn_quant</text>
<rect x="300.0" y="774.0" width="409.6" height="15" rx="2" class="bar-ok"/>
<text x="716.6" y="786.0" class="value">1.20  (2.964/2.46)</text>
<text x="18.0" y="810.0" class="label">gpt2_quant.cut</text>
<rect x="300.0" y="798.0" width="408.4" height="15" rx="2" class="bar-ok"/>
<text x="715.4" y="810.0" class="value">1.20  (1.730/1.44)</text>
<text x="18.0" y="834.0" class="label">mv3_depth_quant</text>
<rect x="300.0" y="822.0" width="374.0" height="15" rx="2" class="bar-ok"/>
<text x="681.0" y="834.0" class="value">1.10  (0.660/0.6)</text>
<text x="18.0" y="858.0" class="label">llama2_quant.cut</text>
<rect x="300.0" y="846.0" width="369.2" height="15" rx="2" class="bar-ok"/>
<text x="676.2" y="858.0" class="value">1.09  (0.771/0.71)</text>
<text x="18.0" y="882.0" class="label">pynet_v2_float</text>
<rect x="300.0" y="870.0" width="361.2" height="15" rx="2" class="bar-ok"/>
<text x="668.2" y="882.0" class="value">1.06  (15.280/14.38)</text>
<text x="18.0" y="906.0" class="label">swin_float</text>
<rect x="300.0" y="894.0" width="361.0" height="15" rx="2" class="bar-ok"/>
<text x="668.0" y="906.0" class="value">1.06  (1.784/1.68)</text>
<text x="18.0" y="930.0" class="label">vit_b16_quant</text>
<rect x="300.0" y="918.0" width="359.5" height="15" rx="2" class="bar-ok"/>
<text x="666.5" y="930.0" class="value">1.06  (5.108/4.83)</text>
<text x="18.0" y="954.0" class="label">mv3_depth_float</text>
<rect x="300.0" y="942.0" width="340.6" height="15" rx="2" class="bar-ok"/>
<text x="647.6" y="954.0" class="value">1.00  (1.593/1.59)</text>
<text x="18.0" y="978.0" class="label">esrgan__int16</text>
<rect x="300.0" y="966.0" width="315.5" height="15" rx="2" class="bar-fast"/>
<text x="622.5" y="978.0" class="value">0.93  (2.831/3.05)</text>
<text x="18.0" y="1002.0" class="label">sd_encoder_quant</text>
<rect x="300.0" y="990.0" width="272.8" height="15" rx="2" class="bar-fast"/>
<text x="579.8" y="1002.0" class="value">0.80  (2.584/3.22)</text>
<text x="18.0" y="1026.0" class="label">sd_decoder_quant</text>
<rect x="300.0" y="1014.0" width="271.1" height="15" rx="2" class="bar-fast"/>
<text x="578.1" y="1026.0" class="value">0.80  (5.207/6.53)</text>
<text x="18.0" y="1050.0" class="label">swin_quant</text>
<rect x="300.0" y="1038.0" width="254.3" height="15" rx="2" class="bar-fast"/>
<text x="561.3" y="1050.0" class="value">0.75  (0.748/1)</text>
<text x="18.0" y="1074.0" class="label">microisp_int16</text>
<rect x="300.0" y="1062.0" width="229.5" height="15" rx="2" class="bar-fast"/>
<text x="536.5" y="1074.0" class="value">0.67  (4.799/7.11)</text>
<text x="18.0" y="1098.0" class="label">sam_quant.cut</text>
<rect x="300.0" y="1086.0" width="228.3" height="15" rx="2" class="bar-fast"/>
<text x="535.3" y="1098.0" class="value">0.67  (1.363/2.03)</text>
<text x="18.0" y="1122.0" class="label">mobilenet_v3_b4_float</text>
<rect x="300.0" y="1110.0" width="220.4" height="15" rx="2" class="bar-fast"/>
<text x="527.4" y="1122.0" class="value">0.65  (1.381/2.13)</text>
<text x="18.0" y="1146.0" class="label">mobilenet_v3_b4_quant</text>
<rect x="300.0" y="1134.0" width="215.9" height="15" rx="2" class="bar-fast"/>
<text x="522.9" y="1146.0" class="value">0.64  (0.489/0.77)</text>
<text x="18.0" y="1170.0" class="label">pynet_v2_quant</text>
<rect x="300.0" y="1158.0" width="196.7" height="15" rx="2" class="bar-fast"/>
<text x="503.7" y="1170.0" class="value">0.58  (5.322/9.2)</text>
<text x="18.0" y="1194.0" class="label">dped_quant</text>
<rect x="300.0" y="1182.0" width="190.6" height="15" rx="2" class="bar-fast"/>
<text x="497.6" y="1194.0" class="value">0.56  (13.048/23.27)</text>
<text x="18.0" y="1218.0" class="label">microisp_float</text>
<rect x="300.0" y="1206.0" width="176.6" height="15" rx="2" class="bar-fast"/>
<text x="483.6" y="1218.0" class="value">0.52  (4.359/8.39)</text>
<text x="18.0" y="1242.0" class="label">resnet_float</text>
<rect x="300.0" y="1230.0" width="170.0" height="15" rx="2" class="bar-fast"/>
<text x="477.0" y="1242.0" class="value">0.50  (0.010/0.02)</text>
<text x="18.0" y="1266.0" class="label">microisp_quant</text>
<rect x="300.0" y="1254.0" width="151.5" height="15" rx="2" class="bar-fast"/>
<text x="458.5" y="1266.0" class="value">0.45  (2.415/5.42)</text>
<text x="18.0" y="1290.0" class="label">resnet_quant</text>
<rect x="300.0" y="1278.0" width="85.0" height="15" rx="2" class="bar-fast"/>
<text x="392.0" y="1290.0" class="value">0.25  (0.005/0.02)</text>
<text x="731.0" y="1348.0" class="small" text-anchor="middle">MDLA7 / MDLA6 CX （Cycle Ratio）</text>
</svg>
