<svg xmlns="http://www.w3.org/2000/svg" width="1556" height="760" viewBox="0 0 1556 760">
<style>
text{font-family:-apple-system,BlinkMacSystemFont,'Segoe UI',sans-serif;fill:#1f2933}
.small{font-size:12px;fill:#52606d}.axis{stroke:#9aa5b1;stroke-width:1}
.grid{stroke:#d9e2ec;stroke-width:1}.threshold{stroke:#d64545;stroke-width:2;stroke-dasharray:7 6}
.label{font-size:12px}.title{font-size:22px;font-weight:700}.line{stroke:#2f80ed;stroke-width:2.4;fill:none;stroke-linejoin:round;stroke-linecap:round}
.dot{fill:#2f80ed}.dot-risk{fill:#d64545}.value{font-size:11px;font-variant-numeric:tabular-nums;fill:#334e68}
</style>
<rect width="100%" height="100%" fill="#ffffff"/>
<text x="82.0" y="30.0" class="title">MDLA7 / MDLA6 Pattern Ratio</text>
<text x="82.0" y="52.0" class="small">X = Pattern sorted by MDLA7 / MDLA6 CX; Y = MDLA7 / MDLA6 CX （Cycle Ratio）; dashed line marks Y = 2</text>
<line x1="76" y1="496.0" x2="1490" y2="496.0" class="grid"/>
<text x="70.0" y="500.0" class="small" text-anchor="end">0</text>
<line x1="76" y1="429.3" x2="1490" y2="429.3" class="grid"/>
<text x="70.0" y="433.3" class="small" text-anchor="end">0.5</text>
<line x1="76" y1="362.6" x2="1490" y2="362.6" class="grid"/>
<text x="70.0" y="366.6" class="small" text-anchor="end">1</text>
<line x1="76" y1="295.9" x2="1490" y2="295.9" class="grid"/>
<text x="70.0" y="299.9" class="small" text-anchor="end">1.5</text>
<line x1="76" y1="229.2" x2="1490" y2="229.2" class="threshold"/>
<text x="70.0" y="233.2" class="small" text-anchor="end">2</text>
<line x1="76" y1="162.5" x2="1490" y2="162.5" class="grid"/>
<text x="70.0" y="166.5" class="small" text-anchor="end">2.5</text>
<line x1="76" y1="95.7" x2="1490" y2="95.7" class="grid"/>
<text x="70.0" y="99.7" class="small" text-anchor="end">3</text>
<text x="88.0" y="221.2" class="small" fill="#d64545">Y=2</text>
<line x1="82" y1="496" x2="1482" y2="496" class="axis"/>
<line x1="82" y1="66" x2="82" y2="496" class="axis"/>
<polyline points="82.0,462.6 110.0,436.1 138.0,429.3 166.0,426.6 194.0,421.2 222.0,409.5 250.0,409.4 278.0,408.6 306.0,405.8 334.0,392.0 362.0,390.3 390.0,381.4 418.0,378.6 446.0,371.8 474.0,356.6 502.0,355.4 530.0,350.4 558.0,340.3 586.0,338.5 614.0,335.2 642.0,334.9 670.0,328.4 698.0,327.1 726.0,325.1 754.0,322.9 782.0,317.1 810.0,316.9 838.0,316.6 866.0,315.9 894.0,315.9 922.0,315.5 950.0,313.2 978.0,292.7 1006.0,292.7 1034.0,284.7 1062.0,279.1 1090.0,271.0 1118.0,250.1 1146.0,245.1 1174.0,244.5 1202.0,244.1 1230.0,236.1 1258.0,229.2 1286.0,228.3 1314.0,204.5 1342.0,193.9 1370.0,191.4 1398.0,180.1 1426.0,178.9 1454.0,126.8 1482.0,119.2" class="line"/>
<line x1="82.0" y1="496" x2="82.0" y2="501" class="axis"/>
<text x="84.0" y="516.0" class="label" text-anchor="start" transform="rotate(58 84.0 516.0)">resnet_quant</text>
<circle cx="82.0" cy="462.6" r="4.3" class="dot"/>
<line x1="110.0" y1="496" x2="110.0" y2="501" class="axis"/>
<text x="112.0" y="516.0" class="label" text-anchor="start" transform="rotate(58 112.0 516.0)">microisp_quant</text>
<circle cx="110.0" cy="436.1" r="4.3" class="dot"/>
<line x1="138.0" y1="496" x2="138.0" y2="501" class="axis"/>
<text x="140.0" y="516.0" class="label" text-anchor="start" transform="rotate(58 140.0 516.0)">resnet_float</text>
<circle cx="138.0" cy="429.3" r="4.3" class="dot"/>
<line x1="166.0" y1="496" x2="166.0" y2="501" class="axis"/>
<text x="168.0" y="516.0" class="label" text-anchor="start" transform="rotate(58 168.0 516.0)">microisp_float</text>
<circle cx="166.0" cy="426.6" r="4.3" class="dot"/>
<line x1="194.0" y1="496" x2="194.0" y2="501" class="axis"/>
<text x="196.0" y="516.0" class="label" text-anchor="start" transform="rotate(58 196.0 516.0)">dped_quant</text>
<circle cx="194.0" cy="421.2" r="4.3" class="dot"/>
<line x1="222.0" y1="496" x2="222.0" y2="501" class="axis"/>
<text x="224.0" y="516.0" class="label" text-anchor="start" transform="rotate(58 224.0 516.0)">mobilenet_v3_b4_float</text>
<circle cx="222.0" cy="409.5" r="4.3" class="dot"/>
<line x1="250.0" y1="496" x2="250.0" y2="501" class="axis"/>
<text x="252.0" y="516.0" class="label" text-anchor="start" transform="rotate(58 252.0 516.0)">mobilenet_v3_b4_quant</text>
<circle cx="250.0" cy="409.4" r="4.3" class="dot"/>
<line x1="278.0" y1="496" x2="278.0" y2="501" class="axis"/>
<text x="280.0" y="516.0" class="label" text-anchor="start" transform="rotate(58 280.0 516.0)">pynet_v2_quant</text>
<circle cx="278.0" cy="408.6" r="4.3" class="dot"/>
<line x1="306.0" y1="496" x2="306.0" y2="501" class="axis"/>
<text x="308.0" y="516.0" class="label" text-anchor="start" transform="rotate(58 308.0 516.0)">microisp_int16</text>
<circle cx="306.0" cy="405.8" r="4.3" class="dot"/>
<line x1="334.0" y1="496" x2="334.0" y2="501" class="axis"/>
<text x="336.0" y="516.0" class="label" text-anchor="start" transform="rotate(58 336.0 516.0)">sam_quant.cut</text>
<circle cx="334.0" cy="392.0" r="4.3" class="dot"/>
<line x1="362.0" y1="496" x2="362.0" y2="501" class="axis"/>
<text x="364.0" y="516.0" class="label" text-anchor="start" transform="rotate(58 364.0 516.0)">sd_decoder_quant</text>
<circle cx="362.0" cy="390.3" r="4.3" class="dot"/>
<line x1="390.0" y1="496" x2="390.0" y2="501" class="axis"/>
<text x="392.0" y="516.0" class="label" text-anchor="start" transform="rotate(58 392.0 516.0)">sd_encoder_quant</text>
<circle cx="390.0" cy="381.4" r="4.3" class="dot"/>
<line x1="418.0" y1="496" x2="418.0" y2="501" class="axis"/>
<text x="420.0" y="516.0" class="label" text-anchor="start" transform="rotate(58 420.0 516.0)">swin_quant</text>
<circle cx="418.0" cy="378.6" r="4.3" class="dot"/>
<line x1="446.0" y1="496" x2="446.0" y2="501" class="axis"/>
<text x="448.0" y="516.0" class="label" text-anchor="start" transform="rotate(58 448.0 516.0)">esrgan__int16</text>
<circle cx="446.0" cy="371.8" r="4.3" class="dot"/>
<line x1="474.0" y1="496" x2="474.0" y2="501" class="axis"/>
<text x="476.0" y="516.0" class="label" text-anchor="start" transform="rotate(58 476.0 516.0)">pynet_v2_float</text>
<circle cx="474.0" cy="356.6" r="4.3" class="dot"/>
<line x1="502.0" y1="496" x2="502.0" y2="501" class="axis"/>
<text x="504.0" y="516.0" class="label" text-anchor="start" transform="rotate(58 504.0 516.0)">mv3_depth_float</text>
<circle cx="502.0" cy="355.4" r="4.3" class="dot"/>
<line x1="530.0" y1="496" x2="530.0" y2="501" class="axis"/>
<text x="532.0" y="516.0" class="label" text-anchor="start" transform="rotate(58 532.0 516.0)">vit_b16_quant</text>
<circle cx="530.0" cy="350.4" r="4.3" class="dot"/>
<line x1="558.0" y1="496" x2="558.0" y2="501" class="axis"/>
<text x="560.0" y="516.0" class="label" text-anchor="start" transform="rotate(58 560.0 516.0)">mv3_depth_quant</text>
<circle cx="558.0" cy="340.3" r="4.3" class="dot"/>
<line x1="586.0" y1="496" x2="586.0" y2="501" class="axis"/>
<text x="588.0" y="516.0" class="label" text-anchor="start" transform="rotate(58 588.0 516.0)">swin_float</text>
<circle cx="586.0" cy="338.5" r="4.3" class="dot"/>
<line x1="614.0" y1="496" x2="614.0" y2="501" class="axis"/>
<text x="616.0" y="516.0" class="label" text-anchor="start" transform="rotate(58 616.0 516.0)">imdn_quant</text>
<circle cx="614.0" cy="335.2" r="4.3" class="dot"/>
<line x1="642.0" y1="496" x2="642.0" y2="501" class="axis"/>
<text x="644.0" y="516.0" class="label" text-anchor="start" transform="rotate(58 644.0 516.0)">deeplab_v3_plus_float</text>
<circle cx="642.0" cy="334.9" r="4.3" class="dot"/>
<line x1="670.0" y1="496" x2="670.0" y2="501" class="axis"/>
<text x="672.0" y="516.0" class="label" text-anchor="start" transform="rotate(58 672.0 516.0)">unet_quant</text>
<circle cx="670.0" cy="328.4" r="4.3" class="dot"/>
<line x1="698.0" y1="496" x2="698.0" y2="501" class="axis"/>
<text x="700.0" y="516.0" class="label" text-anchor="start" transform="rotate(58 700.0 516.0)">imdn_float</text>
<circle cx="698.0" cy="327.1" r="4.3" class="dot"/>
<line x1="726.0" y1="496" x2="726.0" y2="501" class="axis"/>
<text x="728.0" y="516.0" class="label" text-anchor="start" transform="rotate(58 728.0 516.0)">inception_v3_quant</text>
<circle cx="726.0" cy="325.1" r="4.3" class="dot"/>
<line x1="754.0" y1="496" x2="754.0" y2="501" class="axis"/>
<text x="756.0" y="516.0" class="label" text-anchor="start" transform="rotate(58 756.0 516.0)">llama2_quant.cut</text>
<circle cx="754.0" cy="322.9" r="4.3" class="dot"/>
<line x1="782.0" y1="496" x2="782.0" y2="501" class="axis"/>
<text x="784.0" y="516.0" class="label" text-anchor="start" transform="rotate(58 784.0 516.0)">midas_v3_quant</text>
<circle cx="782.0" cy="317.1" r="4.3" class="dot"/>
<line x1="810.0" y1="496" x2="810.0" y2="501" class="axis"/>
<text x="812.0" y="516.0" class="label" text-anchor="start" transform="rotate(58 812.0 516.0)">unet_int16</text>
<circle cx="810.0" cy="316.9" r="4.3" class="dot"/>
<line x1="838.0" y1="496" x2="838.0" y2="501" class="axis"/>
<text x="840.0" y="516.0" class="label" text-anchor="start" transform="rotate(58 840.0 516.0)">sam_float.cut</text>
<circle cx="838.0" cy="316.6" r="4.3" class="dot"/>
<line x1="866.0" y1="496" x2="866.0" y2="501" class="axis"/>
<text x="868.0" y="516.0" class="label" text-anchor="start" transform="rotate(58 868.0 516.0)">gpt2_quant.cut</text>
<circle cx="866.0" cy="315.9" r="4.3" class="dot"/>
<line x1="894.0" y1="496" x2="894.0" y2="501" class="axis"/>
<text x="896.0" y="516.0" class="label" text-anchor="start" transform="rotate(58 896.0 516.0)">midas_v3_float</text>
<circle cx="894.0" cy="315.9" r="4.3" class="dot"/>
<line x1="922.0" y1="496" x2="922.0" y2="501" class="axis"/>
<text x="924.0" y="516.0" class="label" text-anchor="start" transform="rotate(58 924.0 516.0)">xlsr_float</text>
<circle cx="922.0" cy="315.5" r="4.3" class="dot"/>
<line x1="950.0" y1="496" x2="950.0" y2="501" class="axis"/>
<text x="952.0" y="516.0" class="label" text-anchor="start" transform="rotate(58 952.0 516.0)">deeplab_v3_plus_quant</text>
<circle cx="950.0" cy="313.2" r="4.3" class="dot"/>
<line x1="978.0" y1="496" x2="978.0" y2="501" class="axis"/>
<text x="980.0" y="516.0" class="label" text-anchor="start" transform="rotate(58 980.0 516.0)">esrgan_quant</text>
<circle cx="978.0" cy="292.7" r="4.3" class="dot"/>
<line x1="1006.0" y1="496" x2="1006.0" y2="501" class="axis"/>
<text x="1008.0" y="516.0" class="label" text-anchor="start" transform="rotate(58 1008.0 516.0)">inception_v3_float</text>
<circle cx="1006.0" cy="292.7" r="4.3" class="dot"/>
<line x1="1034.0" y1="496" x2="1034.0" y2="501" class="axis"/>
<text x="1036.0" y="516.0" class="label" text-anchor="start" transform="rotate(58 1036.0 516.0)">unet_float</text>
<circle cx="1034.0" cy="284.7" r="4.3" class="dot"/>
<line x1="1062.0" y1="496" x2="1062.0" y2="501" class="axis"/>
<text x="1064.0" y="516.0" class="label" text-anchor="start" transform="rotate(58 1064.0 516.0)">vsr_float</text>
<circle cx="1062.0" cy="279.1" r="4.3" class="dot"/>
<line x1="1090.0" y1="496" x2="1090.0" y2="501" class="axis"/>
<text x="1092.0" y="516.0" class="label" text-anchor="start" transform="rotate(58 1092.0 516.0)">sd_diffusion_quant</text>
<circle cx="1090.0" cy="271.0" r="4.3" class="dot"/>
<line x1="1118.0" y1="496" x2="1118.0" y2="501" class="axis"/>
<text x="1120.0" y="516.0" class="label" text-anchor="start" transform="rotate(58 1120.0 516.0)">mobilebert_quant.cut</text>
<circle cx="1118.0" cy="250.1" r="4.3" class="dot"/>
<line x1="1146.0" y1="496" x2="1146.0" y2="501" class="axis"/>
<text x="1148.0" y="516.0" class="label" text-anchor="start" transform="rotate(58 1148.0 516.0)">vsr_quant</text>
<circle cx="1146.0" cy="245.1" r="4.3" class="dot"/>
<line x1="1174.0" y1="496" x2="1174.0" y2="501" class="axis"/>
<text x="1176.0" y="516.0" class="label" text-anchor="start" transform="rotate(58 1176.0 516.0)">srgan_quant</text>
<circle cx="1174.0" cy="244.5" r="4.3" class="dot"/>
<line x1="1202.0" y1="496" x2="1202.0" y2="501" class="axis"/>
<text x="1204.0" y="516.0" class="label" text-anchor="start" transform="rotate(58 1204.0 516.0)">esrgan_float</text>
<circle cx="1202.0" cy="244.1" r="4.3" class="dot"/>
<line x1="1230.0" y1="496" x2="1230.0" y2="501" class="axis"/>
<text x="1232.0" y="516.0" class="label" text-anchor="start" transform="rotate(58 1232.0 516.0)">dped_int16</text>
<circle cx="1230.0" cy="236.1" r="4.3" class="dot"/>
<line x1="1258.0" y1="496" x2="1258.0" y2="501" class="axis"/>
<text x="1260.0" y="516.0" class="label" text-anchor="start" transform="rotate(58 1260.0 516.0)">mobilenet_v3_quant</text>
<circle cx="1258.0" cy="229.2" r="4.3" class="dot-risk"/>
<line x1="1286.0" y1="496" x2="1286.0" y2="501" class="axis"/>
<text x="1288.0" y="516.0" class="label" text-anchor="start" transform="rotate(58 1288.0 516.0)">yolo_v8_float</text>
<circle cx="1286.0" cy="228.3" r="4.3" class="dot-risk"/>
<text x="1293.0" y="221.3" class="value">2.01</text>
<line x1="1314.0" y1="496" x2="1314.0" y2="501" class="axis"/>
<text x="1316.0" y="516.0" class="label" text-anchor="start" transform="rotate(58 1316.0 516.0)">xlsr_quant</text>
<circle cx="1314.0" cy="204.5" r="4.3" class="dot-risk"/>
<text x="1321.0" y="197.5" class="value">2.18</text>
<line x1="1342.0" y1="496" x2="1342.0" y2="501" class="axis"/>
<text x="1344.0" y="516.0" class="label" text-anchor="start" transform="rotate(58 1344.0 516.0)">mobilenet_v3_float</text>
<circle cx="1342.0" cy="193.9" r="4.3" class="dot-risk"/>
<text x="1349.0" y="186.9" class="value">2.26</text>
<line x1="1370.0" y1="496" x2="1370.0" y2="501" class="axis"/>
<text x="1372.0" y="516.0" class="label" text-anchor="start" transform="rotate(58 1372.0 516.0)">yolo_v8_quant</text>
<circle cx="1370.0" cy="191.4" r="4.3" class="dot-risk"/>
<text x="1377.0" y="184.4" class="value">2.28</text>
<line x1="1398.0" y1="496" x2="1398.0" y2="501" class="axis"/>
<text x="1400.0" y="516.0" class="label" text-anchor="start" transform="rotate(58 1400.0 516.0)">srgan_float</text>
<circle cx="1398.0" cy="180.1" r="4.3" class="dot-risk"/>
<text x="1405.0" y="173.1" class="value">2.37</text>
<line x1="1426.0" y1="496" x2="1426.0" y2="501" class="axis"/>
<text x="1428.0" y="516.0" class="label" text-anchor="start" transform="rotate(58 1428.0 516.0)">efficientnet_b4_quant</text>
<circle cx="1426.0" cy="178.9" r="4.3" class="dot-risk"/>
<text x="1433.0" y="171.9" class="value">2.38</text>
<line x1="1454.0" y1="496" x2="1454.0" y2="501" class="axis"/>
<text x="1456.0" y="516.0" class="label" text-anchor="start" transform="rotate(58 1456.0 516.0)">mobilevit_v2_float</text>
<circle cx="1454.0" cy="126.8" r="4.3" class="dot-risk"/>
<text x="1461.0" y="119.8" class="value">2.77</text>
<line x1="1482.0" y1="496" x2="1482.0" y2="501" class="axis"/>
<text x="1484.0" y="516.0" class="label" text-anchor="start" transform="rotate(58 1484.0 516.0)">efficientnet_b4_float</text>
<circle cx="1482.0" cy="119.2" r="4.3" class="dot-risk"/>
<text x="1489.0" y="112.2" class="value">2.82</text>
<text x="782.0" y="752.0" class="small" text-anchor="middle">Pattern</text>
<text x="18.0" y="285.0" class="small" text-anchor="middle" transform="rotate(-90 18 285.0)">MDLA7 / MDLA6 CX （Cycle Ratio）</text>
</svg>
